<svg xmlns="http://www.w3.org/2000/svg" xml:space="preserve" width="1500" height="1500" data-id="lg_beFXZ9w22szpZkazuA" data-version="1" viewBox="0 0 1500 1500"><path fill="#fff" stroke="transparent" d="M0 0h1500v1500H0z"/><g data-padding="20"><g transform="translate(-566.726 -580.404)scale(1.71604)"><path fill="#635fc7" d="m572.044 729.619-4.83-4.83a51.75 51.75 0 0 1 34.072 46.023h11.51l-19.335 19.333-19.36-19.333h11.122a35.88 35.88 0 0 0-23.39-30.981Z"/><path fill="#635fc7" d="M583.264 785.59a35.88 35.88 0 0 1-30.996 23.379v-11.137l-19.333 19.36 19.333 19.335v-11.51a51.75 51.75 0 0 0 46.023-34.085l-4.83 4.844-10.212-10.198"/><path fill="#635fc7" d="M537.502 806.995A35.88 35.88 0 0 1 514.112 776h11.122l-19.347-19.333L486.553 776h11.51a51.89 51.89 0 0 0 34.085 46.023l-4.844-4.83Z"/><path fill="#635fc7" d="M516.084 761.234a35.88 35.88 0 0 1 30.996-23.39v11.122l19.333-19.347-19.333-19.32v11.509a51.89 51.89 0 0 0-46.023 34.072l4.83-4.83Z"/><rect width="418.151" height="123.17" x="158.478" y="317.635" fill="none" rx="0" ry="0" transform="translate(471.43 399.45)"/><path fill="#635fc7" d="M649.634 812.92h-10.36v-74.78h52.98v8.94h-42.62v23.98h38.8v8.83h-38.8Zm64.09 0h-9.59v-78.81h9.59Zm38.48 1.3q-8.72 0-14.66-3.21-5.94-3.22-9.05-9.87-3.11-6.64-3.11-16.89 0-10.36 3.11-16.95t9.05-9.81 14.66-3.22 14.66 3.22 8.99 9.81 3.05 16.95q0 10.25-3.05 16.89-3.05 6.65-8.99 9.87-5.94 3.21-14.66 3.21m0-8.06q5.56 0 9.26-2.18 3.71-2.18 5.62-6.81 1.9-4.64 1.9-11.72v-2.4q0-7.19-1.9-11.77-1.91-4.58-5.62-6.76-3.7-2.18-9.26-2.18t-9.32 2.18-5.61 6.76q-1.86 4.58-1.86 11.77v2.4q0 7.08 1.86 11.72 1.85 4.63 5.61 6.81t9.32 2.18m59.4 6.76h-9.81l-17.33-57.34h9.92l8.72 31.5q.66 2.29 1.25 4.96.6 2.67 1.2 4.91.6 2.23.82 3.43h.66q.43-2.07 1.03-4.69.6-2.61 1.09-5.01t.82-3.71l7.85-31.39h10.35l7.96 31.39q.43 1.86.98 4.31.54 2.45 1.14 4.85t.82 4.25h.66q.43-1.74.98-4.09.54-2.34 1.2-4.79.65-2.45 1.19-4.31l8.62-31.61h9.15l-17.22 57.34h-9.81l-7.41-29.65q-.44-2.07-1.09-4.85-.66-2.78-1.26-5.67t-1.03-5.07h-.66q-.21 1.64-.7 4.14-.49 2.51-1.15 5.51-.65 3-1.52 5.94Zm91.13 19.83h-23.44q-4.14 0-7.63-1.69-3.49-1.68-5.56-4.85-2.07-3.16-2.07-7.52 0-4.79 2.67-7.95t6.38-4.69q-2.73-1.31-4.25-3.65-1.53-2.35-1.53-5.18 0-3.81 2.78-6.43t6.81-3.49q-3.7-2.4-5.83-6.16-2.12-3.76-2.12-8.34 0-5.45 2.56-9.59t7.85-6.54q5.28-2.4 12.91-2.4 3.49 0 6.54.49 3.06.5 5.45 1.59 3.82-1.75 5.73-4.47 1.9-2.73 2.34-5.56h9.48q0 3.27-1.47 6.16-1.47 2.88-3.98 4.79-2.5 1.91-6.1 2.56 2.72 2.62 4.09 5.89 1.36 3.27 1.36 7.08 0 5.45-2.56 9.65t-7.69 6.6q-5.12 2.39-12.86 2.39h-8.94q-2.94 0-4.79 1.15-1.86 1.14-1.86 3.65 0 2.18 1.86 3.54 1.85 1.36 4.79 1.36h23.33q6.32 0 10.35 4.2 4.04 4.2 4.04 10.74 0 4.68-2.35 8.44-2.34 3.77-6.54 6-4.19 2.23-9.75 2.23m-20.71-7.3h20.6q2.51 0 4.58-1.03 2.07-1.04 3.27-2.89 1.2-1.86 1.2-4.04 0-3.7-2.18-5.88-2.19-2.18-5.45-2.18h-22.02q-3.49 0-5.89 2.34-2.4 2.35-2.4 5.72 0 3.6 2.4 5.78t5.89 2.18m10.35-41.2q6.98 0 10.36-3.05t3.38-8.4q0-5.23-3.38-8.28t-10.36-3.05q-6.97 0-10.41 3.05-3.43 3.05-3.43 8.28 0 3.38 1.52 6 1.53 2.62 4.58 4.03 3.05 1.42 7.74 1.42m47.42 28.66h-9.6v-57.34h7.74l.88 9.49h.76q.87-2.73 2.4-5.18 1.52-2.45 4.14-4.04 2.62-1.58 6.43-1.58 1.64 0 3 .28 1.36.27 2.01.6v8.83h-3.59q-3.71 0-6.38 1.25t-4.41 3.54q-1.75 2.29-2.57 5.45-.81 3.16-.81 6.76Zm36.18-68.12h-9.59v-10.68h9.59Zm0 68.13h-9.59v-57.34h9.59Zm34.45 1.3q-7.09 0-12.15-3.16-5.07-3.16-7.85-9.86t-2.78-17.39q0-10.13 2.83-16.67 2.84-6.54 7.85-9.7 5.01-3.17 11.66-3.17 3.82 0 7.09.88 3.27.87 5.83 2.72t4.52 4.91h.66v-28.67h9.59v78.81h-7.74l-.87-8.18h-.76q-2.95 4.8-7.63 7.14-4.69 2.34-10.25 2.34m2.29-8.39q5.45 0 8.83-2.4 3.38-2.39 4.96-6.97t1.58-11.34v-1.74q0-5.89-1.2-9.92t-3.27-6.43-4.8-3.38q-2.72-.98-5.77-.98-5.35 0-8.73 2.12-3.37 2.13-5.01 6.65-1.63 4.53-1.63 11.72v2.29q0 7.41 1.74 11.93 1.74 4.53 5.07 6.49 3.32 1.96 8.23 1.96"/><rect width="44.178" height="81.36" x="345.465" y="338.54" fill="none" rx="0" ry="0" transform="translate(184.41 399.85)"/><path fill="#fff" d="M544.264 803h-6.84v-49.39h34.99v5.91h-28.15v15.84h25.63v5.83h-25.63Z"/></g><path fill="transparent" stroke="transparent" stroke-width="1.779" d="M250 634.342h1000v231.316H250z"/></g></svg>